<svg width="32" height="32" viewBox="0 0 32 32" fill="none" xmlns="http://www.w3.org/2000/svg">
<path d="M24 0H8C3.58172 0 0 3.58172 0 8V24C0 28.4183 3.58172 32 8 32H24C28.4183 32 32 28.4183 32 24V8C32 3.58172 28.4183 0 24 0Z" fill="white"/>
<path d="M19.1122 14.2158C18.8085 13.9121 18.316 13.9121 18.0123 14.2158L15.8124 16.4157C15.5087 16.7195 15.5087 17.2119 15.8124 17.5156C16.1161 17.8194 16.6086 17.8194 16.9123 17.5156L19.1122 15.3158C19.4159 15.012 19.4159 14.5196 19.1122 14.2158Z" fill="#2D96FF"/>
<path fill-rule="evenodd" clip-rule="evenodd" d="M13.9014 6.66663C13.4718 6.66663 13.1236 7.01484 13.1236 7.4444C13.1236 7.87397 13.4718 8.22218 13.9014 8.22218H15V9.81616C11.0697 10.2064 8 13.5225 8 17.5555C8 21.851 11.4823 25.3333 15.7778 25.3333C20.0733 25.3333 23.5556 21.851 23.5556 17.5555C23.5556 15.6827 22.8937 13.9646 21.791 12.6221L22.8844 11.5287C23.1881 11.225 23.1881 10.7325 22.8844 10.4288C22.5807 10.1251 22.0882 10.1251 21.7845 10.4288L20.6891 11.5242C19.5386 10.5863 18.1148 9.97094 16.5556 9.81616V8.22218H17.6542C18.0837 8.22218 18.4319 7.87397 18.4319 7.4444C18.4319 7.01484 18.0837 6.66663 17.6542 6.66663H13.9014ZM9.55556 17.5555C9.55556 14.1191 12.3413 11.3333 15.7778 11.3333C19.2142 11.3333 22 14.1191 22 17.5555C22 20.992 19.2142 23.7777 15.7778 23.7777C12.3413 23.7777 9.55556 20.992 9.55556 17.5555Z" fill="#2D96FF"/>
</svg>
