<svg width="72" height="72" viewBox="0 0 72 72" fill="none" xmlns="http://www.w3.org/2000/svg">
<path d="M54 0H18C8.05887 0 0 8.05887 0 18V54C0 63.9411 8.05887 72 18 72H54C63.9411 72 72 63.9411 72 54V18C72 8.05887 63.9411 0 54 0Z" fill="url(#paint0_linear)"/>
<path d="M43.0024 31.9865C42.319 31.3032 41.2109 31.3032 40.5275 31.9865L35.5778 36.9362C34.8945 37.6198 34.8945 38.7277 35.5778 39.4111C36.2612 40.0946 37.3693 40.0946 38.0527 39.4111L43.0024 34.4614C43.6858 33.778 43.6858 32.6699 43.0024 31.9865Z" fill="white"/>
<path fill-rule="evenodd" clip-rule="evenodd" d="M31.2781 15C30.3116 15 29.5281 15.7835 29.5281 16.75C29.5281 17.7165 30.3116 18.5 31.2781 18.5H33.75V22.0865C24.9067 22.9644 18 30.4257 18 39.5C18 49.1649 25.8351 57 35.5 57C45.1649 57 53 49.1649 53 39.5C53 35.2862 51.5108 31.4204 49.0298 28.3999L51.4899 25.9398C52.1733 25.2564 52.1733 24.1483 51.4899 23.4649C50.8066 22.7815 49.6985 22.7815 49.0151 23.4649L46.5504 25.9296C43.962 23.8193 40.7584 22.4347 37.25 22.0865V18.5H39.7219C40.6884 18.5 41.4719 17.7165 41.4719 16.75C41.4719 15.7835 40.6884 15 39.7219 15H31.2781ZM21.5 39.5C21.5 31.768 27.768 25.5 35.5 25.5C43.232 25.5 49.5 31.768 49.5 39.5C49.5 47.232 43.232 53.5 35.5 53.5C27.768 53.5 21.5 47.232 21.5 39.5Z" fill="white"/>
<defs>
<linearGradient id="paint0_linear" x1="-12.07" y1="36" x2="83.5452" y2="36" gradientUnits="userSpaceOnUse">
<stop stop-color="#3180EC"/>
<stop offset="1" stop-color="#55CBF1"/>
</linearGradient>
</defs>
</svg>
